<svg width="163" height="20" viewBox="0 0 163 20" fill="none" xmlns="http://www.w3.org/2000/svg">
<path d="M4.088 10.156H14.252V11.944H4.088V10.156ZM7.328 16.336C7.328 16.536 7.38 16.7 7.484 16.828C7.588 16.948 7.74 17.048 7.94 17.128L8.396 17.296C8.812 17.456 9.02 17.752 9.02 18.184C9.02 18.432 8.936 18.632 8.768 18.784C8.6 18.928 8.34 19 7.988 19H1.1C0.748 19 0.488 18.928 0.32 18.784C0.152 18.632 0.068 18.432 0.068 18.184C0.068 17.752 0.276 17.456 0.692 17.296L1.148 17.128C1.356 17.048 1.508 16.948 1.604 16.828C1.708 16.7 1.76 16.536 1.76 16.336V4.864C1.76 4.664 1.708 4.504 1.604 4.384C1.508 4.256 1.356 4.152 1.148 4.072L0.692 3.904C0.276 3.744 0.068 3.448 0.068 3.016C0.068 2.76 0.152 2.56 0.32 2.416C0.488 2.272 0.748 2.2 1.1 2.2H7.988C8.34 2.2 8.6 2.272 8.768 2.416C8.936 2.56 9.02 2.76 9.02 3.016C9.02 3.448 8.812 3.744 8.396 3.904L7.94 4.072C7.74 4.152 7.588 4.256 7.484 4.384C7.38 4.504 7.328 4.664 7.328 4.864V16.336ZM17.9 16.336C17.9 16.536 17.952 16.7 18.056 16.828C18.16 16.948 18.312 17.048 18.512 17.128L18.968 17.296C19.384 17.456 19.592 17.752 19.592 18.184C19.592 18.432 19.508 18.632 19.34 18.784C19.172 18.928 18.912 19 18.56 19H11.672C11.32 19 11.06 18.928 10.892 18.784C10.724 18.632 10.64 18.432 10.64 18.184C10.64 17.752 10.848 17.456 11.264 17.296L11.72 17.128C11.928 17.048 12.08 16.948 12.176 16.828C12.28 16.7 12.332 16.536 12.332 16.336V4.864C12.332 4.664 12.28 4.504 12.176 4.384C12.08 4.256 11.928 4.152 11.72 4.072L11.264 3.904C10.848 3.744 10.64 3.448 10.64 3.016C10.64 2.76 10.724 2.56 10.892 2.416C11.06 2.272 11.32 2.2 11.672 2.2H18.56C18.912 2.2 19.172 2.272 19.34 2.416C19.508 2.56 19.592 2.76 19.592 3.016C19.592 3.448 19.384 3.744 18.968 3.904L18.512 4.072C18.312 4.152 18.16 4.256 18.056 4.384C17.952 4.504 17.9 4.664 17.9 4.864V16.336ZM28.2283 7.072C29.5883 7.072 30.7763 7.332 31.7923 7.852C32.8083 8.364 33.5963 9.084 34.1562 10.012C34.7243 10.94 35.0083 12.02 35.0083 13.252C35.0083 14.388 34.7123 15.416 34.1203 16.336C33.5283 17.256 32.7083 17.988 31.6603 18.532C30.6203 19.068 29.4123 19.336 28.0363 19.336C26.6763 19.336 25.4883 19.076 24.4723 18.556C23.4563 18.028 22.6643 17.3 22.0963 16.372C21.5363 15.444 21.2563 14.372 21.2563 13.156C21.2563 11.996 21.5523 10.96 22.1443 10.048C22.7363 9.128 23.5523 8.404 24.5923 7.876C25.6403 7.34 26.8523 7.072 28.2283 7.072ZM29.1043 17.596C29.4083 17.524 29.6403 17.312 29.8003 16.96C29.9603 16.608 30.0323 16.096 30.0163 15.424C30.0003 14.752 29.8803 13.9 29.6563 12.868C29.4483 11.876 29.2123 11.068 28.9483 10.444C28.6923 9.82 28.4123 9.372 28.1083 9.1C27.8043 8.828 27.4883 8.732 27.1603 8.812C26.8563 8.884 26.6243 9.096 26.4643 9.448C26.3043 9.8 26.2323 10.312 26.2483 10.984C26.2723 11.648 26.3923 12.5 26.6083 13.54C26.8163 14.524 27.0523 15.332 27.3163 15.964C27.5803 16.588 27.8602 17.036 28.1562 17.308C28.4603 17.572 28.7763 17.668 29.1043 17.596ZM43.1574 19H41.3334C40.9894 19 40.6894 18.92 40.4334 18.76C40.1854 18.6 39.9894 18.324 39.8454 17.932L36.8334 9.772C36.7294 9.476 36.6374 9.28 36.5574 9.184C36.4774 9.088 36.3934 9.02 36.3054 8.98L36.0534 8.86C35.8934 8.78 35.7774 8.688 35.7054 8.584C35.6334 8.472 35.5974 8.328 35.5974 8.152C35.5974 7.928 35.6734 7.752 35.8254 7.624C35.9854 7.496 36.2014 7.432 36.4734 7.432H42.5454C42.8094 7.432 43.0174 7.496 43.1694 7.624C43.3294 7.752 43.4094 7.928 43.4094 8.152C43.4094 8.328 43.3614 8.472 43.2654 8.584C43.1774 8.688 43.0294 8.772 42.8214 8.836L42.4974 8.932C42.3214 8.988 42.2174 9.108 42.1854 9.292C42.1534 9.476 42.2294 9.84 42.4134 10.384L44.4654 16.408L43.2294 17.356L46.0374 9.856L47.4894 10.78L44.6454 18.04C44.4934 18.424 44.2814 18.68 44.0094 18.808C43.7454 18.936 43.4614 19 43.1574 19ZM51.3414 19H49.5894C49.2534 19 48.9534 18.92 48.6894 18.76C48.4334 18.592 48.2374 18.316 48.1014 17.932L45.2454 9.772C45.1414 9.476 45.0494 9.28 44.9694 9.184C44.8894 9.088 44.8054 9.02 44.7174 8.98L44.4654 8.86C44.3054 8.78 44.1894 8.688 44.1174 8.584C44.0454 8.472 44.0094 8.328 44.0094 8.152C44.0094 7.672 44.3014 7.432 44.8854 7.432H50.8134C51.3894 7.432 51.6774 7.672 51.6774 8.152C51.6774 8.328 51.6334 8.476 51.5454 8.596C51.4574 8.708 51.3334 8.78 51.1734 8.812L50.6454 8.908C50.4694 8.94 50.3694 9.064 50.3454 9.28C50.3294 9.488 50.4054 9.852 50.5734 10.372L52.5174 16.408L51.4014 17.356L53.4774 10.708C53.6854 10.068 53.7774 9.628 53.7534 9.388C53.7374 9.14 53.6254 8.988 53.4174 8.932L53.0934 8.836C52.8934 8.772 52.7454 8.688 52.6494 8.584C52.5534 8.472 52.5054 8.328 52.5054 8.152C52.5054 7.928 52.5814 7.752 52.7334 7.624C52.8934 7.496 53.1054 7.432 53.3694 7.432H56.1534C56.4254 7.432 56.6374 7.496 56.7894 7.624C56.9494 7.752 57.0294 7.928 57.0294 8.152C57.0294 8.304 56.9934 8.44 56.9214 8.56C56.8494 8.672 56.7094 8.764 56.5014 8.836L56.2734 8.92C56.1294 8.976 55.9934 9.128 55.8654 9.376C55.7454 9.616 55.5894 10.012 55.3974 10.564L52.8294 18.04C52.7014 18.416 52.4974 18.672 52.2174 18.808C51.9374 18.936 51.6454 19 51.3414 19ZM68.7708 8.152V16.48C68.7708 16.8 68.7948 17.028 68.8428 17.164C68.8908 17.292 68.9748 17.384 69.0948 17.44L69.3588 17.56C69.5428 17.64 69.6748 17.74 69.7548 17.86C69.8348 17.98 69.8748 18.12 69.8748 18.28C69.8748 18.504 69.8028 18.68 69.6588 18.808C69.5148 18.936 69.2828 19 68.9628 19H63.4908C63.1708 19 62.9388 18.936 62.7948 18.808C62.6508 18.68 62.5788 18.504 62.5788 18.28C62.5788 18.12 62.6188 17.98 62.6988 17.86C62.7788 17.74 62.9108 17.64 63.0948 17.56L63.3588 17.44C63.4788 17.384 63.5628 17.292 63.6108 17.164C63.6588 17.028 63.6828 16.8 63.6828 16.48V10.84C63.6828 10.584 63.6468 10.404 63.5748 10.3C63.5108 10.188 63.4108 10.112 63.2748 10.072L63.0108 9.988C62.8428 9.932 62.7188 9.852 62.6388 9.748C62.5668 9.644 62.5308 9.512 62.5308 9.352C62.5308 9.16 62.5828 9.008 62.6868 8.896C62.7908 8.784 62.9868 8.672 63.2748 8.56L65.9388 7.528C66.3708 7.36 66.7108 7.244 66.9588 7.18C67.2068 7.108 67.4268 7.072 67.6188 7.072C68.0028 7.072 68.2908 7.176 68.4828 7.384C68.6748 7.584 68.7708 7.84 68.7708 8.152ZM65.9628 6.016C65.0668 6.016 64.3588 5.808 63.8388 5.392C63.3188 4.976 63.0588 4.408 63.0588 3.688C63.0588 2.976 63.3188 2.416 63.8388 2.008C64.3588 1.6 65.0668 1.396 65.9628 1.396C66.8588 1.396 67.5668 1.6 68.0868 2.008C68.6068 2.416 68.8668 2.976 68.8668 3.688C68.8668 4.408 68.6068 4.976 68.0868 5.392C67.5668 5.808 66.8588 6.016 65.9628 6.016ZM71.4723 8.992L71.0883 8.836C70.9123 8.764 70.7803 8.672 70.6923 8.56C70.6043 8.448 70.5603 8.312 70.5603 8.152C70.5603 7.92 70.6363 7.744 70.7883 7.624C70.9483 7.496 71.1523 7.432 71.4003 7.432H72.0603C72.2123 7.432 72.3523 7.392 72.4803 7.312C72.6163 7.232 72.7883 7.088 72.9963 6.88L74.9523 4.9C75.2163 4.636 75.4603 4.44 75.6843 4.312C75.9163 4.184 76.1363 4.12 76.3443 4.12C76.5763 4.12 76.7563 4.196 76.8843 4.348C77.0203 4.5 77.0883 4.72 77.0883 5.008V14.632C77.0883 15.216 77.1883 15.66 77.3883 15.964C77.5883 16.268 77.8763 16.42 78.2523 16.42C78.5563 16.42 78.7883 16.344 78.9483 16.192C79.1163 16.04 79.2483 15.868 79.3443 15.676C79.4483 15.476 79.5563 15.3 79.6683 15.148C79.7803 14.996 79.9323 14.92 80.1243 14.92C80.2843 14.92 80.4123 14.976 80.5083 15.088C80.6043 15.2 80.6523 15.392 80.6523 15.664C80.6523 16.344 80.4563 16.964 80.0643 17.524C79.6723 18.076 79.1323 18.516 78.4443 18.844C77.7563 19.172 76.9723 19.336 76.0923 19.336C74.7883 19.336 73.7803 19.024 73.0683 18.4C72.3563 17.768 72.0003 16.816 72.0003 15.544V9.772C72.0003 9.54 71.9563 9.372 71.8683 9.268C71.7883 9.164 71.6563 9.072 71.4723 8.992ZM75.3363 9.136V7.432H79.7163C79.9643 7.432 80.1603 7.488 80.3043 7.6C80.4563 7.704 80.5323 7.856 80.5323 8.056C80.5323 8.36 80.3843 8.616 80.0883 8.824C79.7923 9.032 79.3043 9.136 78.6243 9.136H75.3363ZM93.4074 19H91.5834C91.2394 19 90.9394 18.92 90.6834 18.76C90.4354 18.6 90.2394 18.324 90.0954 17.932L87.0834 9.772C86.9794 9.476 86.8874 9.28 86.8074 9.184C86.7274 9.088 86.6434 9.02 86.5554 8.98L86.3034 8.86C86.1434 8.78 86.0274 8.688 85.9554 8.584C85.8834 8.472 85.8474 8.328 85.8474 8.152C85.8474 7.928 85.9234 7.752 86.0754 7.624C86.2354 7.496 86.4514 7.432 86.7234 7.432H92.7954C93.0594 7.432 93.2674 7.496 93.4194 7.624C93.5794 7.752 93.6594 7.928 93.6594 8.152C93.6594 8.328 93.6114 8.472 93.5154 8.584C93.4274 8.688 93.2794 8.772 93.0714 8.836L92.7474 8.932C92.5714 8.988 92.4674 9.108 92.4354 9.292C92.4034 9.476 92.4794 9.84 92.6634 10.384L94.7154 16.408L93.4794 17.356L96.2874 9.856L97.7394 10.78L94.8954 18.04C94.7434 18.424 94.5314 18.68 94.2594 18.808C93.9954 18.936 93.7114 19 93.4074 19ZM101.591 19H99.8394C99.5034 19 99.2034 18.92 98.9394 18.76C98.6834 18.592 98.4874 18.316 98.3514 17.932L95.4954 9.772C95.3914 9.476 95.2994 9.28 95.2194 9.184C95.1394 9.088 95.0554 9.02 94.9674 8.98L94.7154 8.86C94.5554 8.78 94.4394 8.688 94.3674 8.584C94.2954 8.472 94.2594 8.328 94.2594 8.152C94.2594 7.672 94.5514 7.432 95.1354 7.432H101.063C101.639 7.432 101.927 7.672 101.927 8.152C101.927 8.328 101.883 8.476 101.795 8.596C101.707 8.708 101.583 8.78 101.423 8.812L100.895 8.908C100.719 8.94 100.619 9.064 100.595 9.28C100.579 9.488 100.655 9.852 100.823 10.372L102.767 16.408L101.651 17.356L103.727 10.708C103.935 10.068 104.027 9.628 104.003 9.388C103.987 9.14 103.875 8.988 103.667 8.932L103.343 8.836C103.143 8.772 102.995 8.688 102.899 8.584C102.803 8.472 102.755 8.328 102.755 8.152C102.755 7.928 102.831 7.752 102.983 7.624C103.143 7.496 103.355 7.432 103.619 7.432H106.403C106.675 7.432 106.887 7.496 107.039 7.624C107.199 7.752 107.279 7.928 107.279 8.152C107.279 8.304 107.243 8.44 107.171 8.56C107.099 8.672 106.959 8.764 106.751 8.836L106.523 8.92C106.379 8.976 106.243 9.128 106.115 9.376C105.995 9.616 105.839 10.012 105.647 10.564L103.079 18.04C102.951 18.416 102.747 18.672 102.467 18.808C102.187 18.936 101.895 19 101.591 19ZM114.783 7.072C116.143 7.072 117.331 7.332 118.347 7.852C119.363 8.364 120.151 9.084 120.711 10.012C121.279 10.94 121.563 12.02 121.563 13.252C121.563 14.388 121.267 15.416 120.675 16.336C120.083 17.256 119.263 17.988 118.215 18.532C117.175 19.068 115.967 19.336 114.591 19.336C113.231 19.336 112.043 19.076 111.027 18.556C110.011 18.028 109.219 17.3 108.651 16.372C108.091 15.444 107.811 14.372 107.811 13.156C107.811 11.996 108.107 10.96 108.699 10.048C109.291 9.128 110.107 8.404 111.147 7.876C112.195 7.34 113.407 7.072 114.783 7.072ZM115.659 17.596C115.963 17.524 116.195 17.312 116.355 16.96C116.515 16.608 116.587 16.096 116.571 15.424C116.555 14.752 116.435 13.9 116.211 12.868C116.003 11.876 115.767 11.068 115.503 10.444C115.247 9.82 114.967 9.372 114.663 9.1C114.359 8.828 114.043 8.732 113.715 8.812C113.411 8.884 113.179 9.096 113.019 9.448C112.859 9.8 112.787 10.312 112.803 10.984C112.827 11.648 112.947 12.5 113.163 13.54C113.371 14.524 113.607 15.332 113.871 15.964C114.135 16.588 114.415 17.036 114.711 17.308C115.015 17.572 115.331 17.668 115.659 17.596ZM128.584 12.448C128.584 11.224 128.744 10.216 129.064 9.424C129.384 8.624 129.808 8.032 130.336 7.648C130.872 7.264 131.456 7.072 132.088 7.072C132.936 7.072 133.584 7.328 134.032 7.84C134.488 8.344 134.716 9.108 134.716 10.132C134.716 11.18 134.504 11.952 134.08 12.448C133.664 12.944 133.12 13.192 132.448 13.192C131.768 13.192 131.256 13.02 130.912 12.676C130.576 12.324 130.408 11.84 130.408 11.224V10.72C130.4 10.512 130.352 10.356 130.264 10.252C130.184 10.14 130.056 10.084 129.88 10.084C129.72 10.084 129.576 10.156 129.448 10.3C129.328 10.436 129.232 10.664 129.16 10.984C129.088 11.296 129.052 11.72 129.052 12.256L128.584 12.448ZM128.716 8.152L129.052 10.66V16.48C129.052 16.76 129.092 16.96 129.172 17.08C129.252 17.192 129.436 17.276 129.724 17.332L130.636 17.512C130.876 17.56 131.052 17.644 131.164 17.764C131.276 17.884 131.332 18.052 131.332 18.268C131.332 18.5 131.252 18.68 131.092 18.808C130.94 18.936 130.712 19 130.408 19H123.772C123.452 19 123.22 18.936 123.076 18.808C122.932 18.68 122.86 18.504 122.86 18.28C122.86 18.12 122.9 17.98 122.98 17.86C123.06 17.74 123.192 17.64 123.376 17.56L123.64 17.44C123.76 17.384 123.844 17.292 123.892 17.164C123.94 17.028 123.964 16.8 123.964 16.48V10.888C123.964 10.632 123.928 10.452 123.856 10.348C123.792 10.236 123.692 10.16 123.556 10.12L123.292 10.036C123.124 9.98 123 9.9 122.92 9.796C122.848 9.692 122.812 9.56 122.812 9.4C122.812 9.208 122.864 9.056 122.968 8.944C123.08 8.824 123.276 8.712 123.556 8.608L126.136 7.6C126.704 7.376 127.112 7.232 127.36 7.168C127.608 7.104 127.8 7.072 127.936 7.072C128.16 7.072 128.332 7.156 128.452 7.324C128.572 7.484 128.66 7.76 128.716 8.152ZM136.616 19C136.296 19 136.064 18.936 135.92 18.808C135.776 18.68 135.704 18.504 135.704 18.28C135.704 18.12 135.744 17.98 135.824 17.86C135.904 17.74 136.036 17.64 136.22 17.56L136.484 17.44C136.604 17.384 136.688 17.292 136.736 17.164C136.784 17.028 136.808 16.8 136.808 16.48V4.648C136.808 4.392 136.772 4.212 136.7 4.108C136.636 3.996 136.536 3.92 136.4 3.88L136.136 3.796C135.968 3.74 135.844 3.66 135.764 3.556C135.692 3.452 135.656 3.32 135.656 3.16C135.656 2.968 135.708 2.816 135.812 2.704C135.916 2.592 136.112 2.48 136.4 2.368L139.064 1.336C139.472 1.176 139.8 1.06 140.048 0.987999C140.304 0.915999 140.552 0.879999 140.792 0.879999C141.152 0.879999 141.424 0.983999 141.608 1.192C141.8 1.392 141.896 1.648 141.896 1.96V16.48C141.896 16.8 141.92 17.024 141.968 17.152C142.016 17.28 142.1 17.376 142.22 17.44L142.46 17.572C142.724 17.724 142.856 17.944 142.856 18.232C142.856 18.744 142.548 19 141.932 19H136.616ZM140.42 13.768L144.932 10.144C145.204 9.928 145.328 9.704 145.304 9.472C145.28 9.24 145.12 9.06 144.824 8.932L144.524 8.8C144.364 8.728 144.252 8.644 144.188 8.548C144.132 8.444 144.104 8.312 144.104 8.152C144.104 7.928 144.18 7.752 144.332 7.624C144.492 7.496 144.704 7.432 144.968 7.432H149.648C149.92 7.432 150.132 7.496 150.284 7.624C150.444 7.744 150.524 7.908 150.524 8.116C150.524 8.324 150.46 8.5 150.332 8.644C150.212 8.78 149.944 8.904 149.528 9.016C149.104 9.136 148.704 9.3 148.328 9.508C147.952 9.716 147.496 10.032 146.96 10.456L141.044 15.064L140.42 13.768ZM145.424 10.252L149.768 16.744C149.896 16.928 150.012 17.072 150.116 17.176C150.228 17.28 150.356 17.384 150.5 17.488C150.684 17.616 150.828 17.752 150.932 17.896C151.044 18.032 151.1 18.18 151.1 18.34C151.1 18.54 151.02 18.7 150.86 18.82C150.708 18.94 150.5 19 150.236 19H144.596C144.364 19 144.176 18.936 144.032 18.808C143.896 18.68 143.828 18.508 143.828 18.292C143.828 18.156 143.856 18.044 143.912 17.956C143.968 17.86 144.06 17.772 144.188 17.692L144.416 17.56C144.544 17.488 144.612 17.388 144.62 17.26C144.636 17.124 144.552 16.92 144.368 16.648L142.136 13.252L145.424 10.252ZM157.294 8.596C156.822 8.596 156.47 8.696 156.238 8.896C156.014 9.096 155.902 9.336 155.902 9.616C155.902 9.784 155.934 9.944 155.998 10.096C156.062 10.24 156.21 10.372 156.442 10.492C156.674 10.612 157.042 10.716 157.546 10.804C159.034 11.052 160.166 11.384 160.942 11.8C161.718 12.208 162.246 12.692 162.526 13.252C162.814 13.812 162.958 14.448 162.958 15.16C162.958 16.464 162.502 17.488 161.59 18.232C160.686 18.968 159.346 19.336 157.57 19.336C156.962 19.336 156.474 19.288 156.106 19.192C155.746 19.096 155.454 19 155.23 18.904C155.014 18.808 154.818 18.76 154.642 18.76C154.45 18.76 154.29 18.808 154.162 18.904C154.034 19 153.906 19.096 153.778 19.192C153.65 19.288 153.486 19.336 153.286 19.336C153.086 19.336 152.934 19.276 152.83 19.156C152.734 19.044 152.642 18.84 152.554 18.544L151.93 16.42C151.802 15.996 151.766 15.664 151.822 15.424C151.878 15.176 152.03 15.004 152.278 14.908C152.534 14.812 152.758 14.808 152.95 14.896C153.142 14.984 153.326 15.16 153.502 15.424C153.87 15.96 154.25 16.404 154.642 16.756C155.042 17.108 155.458 17.372 155.89 17.548C156.33 17.724 156.782 17.812 157.246 17.812C157.782 17.812 158.182 17.712 158.446 17.512C158.718 17.312 158.854 17.044 158.854 16.708C158.854 16.5 158.798 16.32 158.686 16.168C158.582 16.016 158.362 15.88 158.026 15.76C157.698 15.632 157.198 15.508 156.526 15.388C155.366 15.18 154.442 14.884 153.754 14.5C153.074 14.108 152.586 13.628 152.29 13.06C151.994 12.484 151.846 11.816 151.846 11.056C151.846 10.248 152.062 9.548 152.494 8.956C152.934 8.356 153.53 7.892 154.282 7.564C155.042 7.236 155.906 7.072 156.874 7.072C157.506 7.072 158.002 7.124 158.362 7.228C158.73 7.324 159.026 7.424 159.25 7.528C159.482 7.624 159.71 7.672 159.934 7.672C160.15 7.672 160.33 7.624 160.474 7.528C160.626 7.424 160.774 7.324 160.918 7.228C161.062 7.124 161.23 7.072 161.422 7.072C161.598 7.072 161.746 7.136 161.866 7.264C161.986 7.392 162.074 7.612 162.13 7.924L162.502 9.976C162.574 10.384 162.578 10.692 162.514 10.9C162.458 11.1 162.314 11.248 162.082 11.344C161.834 11.448 161.614 11.448 161.422 11.344C161.23 11.232 161.034 11.036 160.834 10.756C160.274 9.948 159.686 9.388 159.07 9.076C158.462 8.756 157.87 8.596 157.294 8.596Z" fill="#83888F"/>
</svg>
